# xmcd
#
# Track frame offsets:
#	150
#	20360
#	38550
#	55937
#	73662
#	87115
#	99927
#	119837
#	135012
#	155305
#	170345
#	185657
#	200310
#	215987
#
# Disc length: 3134 seconds
#
# Revision: 4
# Processed by: cddbd v1.5.2PL0 Copyright (c) Steve Scherf et al.
# Submitted via: audiograbber 1.83.01
#
DISCID=ba0c3c0e
DTITLE=Brooks and Dunn - Brooks and Dunn 7 (Steers and Stripes)
DYEAR=2001
DGENRE=Country
TTITLE0=Only In America
TTITLE1=The Last Thing I Do
TTITLE2=The Long Goodbye
TTITLE3=Go West
TTITLE4=Mi Corizon Perdido En Ti (My Heart Is Lost To You)
TTITLE5=Good Girls Go To Heaven
TTITLE6=When She's Gone She's Gone
TTITLE7=Ain't Nothing 'Bout You
TTITLE8=Unloved
TTITLE9=Deny Deny Deny
TTITLE10=Lucky Me Lonely You
TTITLE11=I Fall
TTITLE12=Every River
TTITLE13=See Jane Dance
EXTD=
EXTT0=
EXTT1=
EXTT2=
EXTT3=
EXTT4=
EXTT5=
EXTT6=
EXTT7=
EXTT8=
EXTT9=
EXTT10=
EXTT11=
EXTT12=
EXTT13=
PLAYORDER=
